<?xml version="1.0" standalone="no"?>
<!DOCTYPE svg PUBLIC "-//W3C//DTD SVG 20010904//EN"
 "http://www.w3.org/TR/2001/REC-SVG-20010904/DTD/svg10.dtd">
<svg version="1.0" xmlns="http://www.w3.org/2000/svg"
 width="195.000000pt" height="256.000000pt" viewBox="0 0 195.000000 256.000000"
 preserveAspectRatio="xMidYMid meet">
<metadata>
Created by potrace 1.16, written by Peter Selinger 2001-2019
</metadata>
<g transform="translate(0.000000,256.000000) scale(0.100000,-0.100000)"
fill="#000000" stroke="none">
<path d="M1162 1854 c-25 -17 -28 -47 -8 -83 12 -22 11 -26 -15 -49 -32 -26
-37 -57 -14 -89 19 -27 77 -40 110 -25 17 8 32 8 54 -1 26 -9 34 -9 47 5 15
15 14 16 -17 15 -26 -2 -33 2 -30 13 11 41 12 82 2 94 -8 10 -5 15 14 24 26
12 33 36 14 47 -16 11 -25 -5 -9 -16 13 -8 13 -10 0 -19 -8 -5 -22 -10 -31
-10 -9 0 -22 -6 -28 -13 -8 -11 -6 -13 11 -13 25 1 33 -21 24 -60 -9 -35 -21
-30 -60 24 l-35 47 25 26 c55 57 10 128 -54 83z"/>
<path d="M409 1671 c26 -47 134 -140 209 -179 94 -49 170 -68 312 -78 58 -4
115 -10 128 -15 32 -12 27 -40 -14 -80 -47 -45 -64 -79 -64 -129 0 -88 67
-168 214 -254 50 -30 103 -67 118 -83 32 -34 52 -103 43 -146 -16 -73 -89
-164 -209 -257 -88 -69 -104 -103 -78 -163 25 -55 58 -94 118 -137 45 -31 43
-28 -22 35 -51 50 -75 82 -84 111 -16 55 -7 70 88 142 103 79 185 168 200 219
16 55 15 148 -2 182 -20 38 -68 78 -148 125 -138 80 -218 178 -203 247 4 17
27 53 51 80 31 35 44 59 44 79 0 31 -30 59 -65 61 -45 2 31 17 92 18 56 1 64
-2 79 -24 15 -24 15 -28 -22 -97 -62 -121 -49 -187 47 -235 46 -24 163 -40
173 -25 3 5 -16 9 -43 10 -94 2 -171 53 -186 122 -5 24 1 48 29 106 40 85 45
123 18 147 -30 27 -72 30 -188 13 -233 -34 -452 31 -600 179 -25 25 -40 37
-35 26z"/>
<path d="M514 1281 l-60 -6 20 -39 c12 -21 32 -46 46 -54 l25 -16 -26 30 c-14
16 -29 37 -32 47 -5 14 0 17 32 17 36 0 38 -2 33 -25 -6 -33 22 -65 57 -65 39
0 53 14 60 56 l6 38 39 -35 c27 -23 36 -28 28 -13 -6 11 -18 26 -26 33 -9 8
-14 17 -11 21 3 5 0 12 -6 16 -8 5 -9 3 -4 -6 6 -10 4 -11 -11 -5 -27 11 -99
14 -170 6z"/>
<path d="M801 734 c-24 -13 -37 -24 -28 -24 9 0 37 -18 62 -40 28 -24 56 -40
71 -40 14 0 55 16 91 36 l65 37 -28 12 c-16 7 -35 19 -42 28 -22 26 -136 21
-191 -9z"/>
</g>
</svg>
